PathFileType	4	(X/Y/Z)	/Users/itak/Documents/Research/Walk-IL/dataset/trc/00092_00006.trc
DataRate	CameraRate	NumFrames	NumMarkers	Units	OrigDataRate	OrigDataStartFrame	OrigNumFrames
100.000000	100.000000	4	53	mm	100.000000	189	505
Frame#	Time	RPSI			LPSI			L3			STRN			T10			C7			CLAV			RBAK			LBAK			LSHO			LUPA			LAEL			LAOL			LWTS			LWPS			LFRA			LIFD			LHPS			LHTS			RSHO			RUPA			RAEL			RAOL			RWTS			RWPS			RFRA			RIFD			RHTS			RHPS			RBHD			LFHD			RFHD			LBHD			LHIP			RHIP			RASI			LASI			LKNE			LTHI			LANK			LTIP			LTOE			LMT1			LMT5			LHEE			RKNE			RTHI			RANK			RTIP			RTOE			RMT1			RMT5			RHEE			
		X1	Y1	Z1	X2	Y2	Z2	X3	Y3	Z3	X4	Y4	Z4	X5	Y5	Z5	X6	Y6	Z6	X7	Y7	Z7	X8	Y8	Z8	X9	Y9	Z9	X10	Y10	Z10	X11	Y11	Z11	X12	Y12	Z12	X13	Y13	Z13	X14	Y14	Z14	X15	Y15	Z15	X16	Y16	Z16	X17	Y17	Z17	X18	Y18	Z18	X19	Y19	Z19	X20	Y20	Z20	X21	Y21	Z21	X22	Y22	Z22	X23	Y23	Z23	X24	Y24	Z24	X25	Y25	Z25	X26	Y26	Z26	X27	Y27	Z27	X28	Y28	Z28	X29	Y29	Z29	X30	Y30	Z30	X31	Y31	Z31	X32	Y32	Z32	X33	Y33	Z33	X34	Y34	Z34	X35	Y35	Z35	X36	Y36	Z36	X37	Y37	Z37	X38	Y38	Z38	X39	Y39	Z39	X40	Y40	Z40	X41	Y41	Z41	X42	Y42	Z42	X43	Y43	Z43	X44	Y44	Z44	X45	Y45	Z45	X46	Y46	Z46	X47	Y47	Z47	X48	Y48	Z48	X49	Y49	Z49	X50	Y50	Z50	X51	Y51	Z51	X52	Y52	Z52	X53	Y53	Z53	

190	1.89	-1075.48046875	1015.826721191406	47.5856819152832	-1079.28271484375	1003.945190429688	-124.1454849243164	-1073.153442382812	1071.928466796875	-51.20766067504883	-817.7720947265625	1256.918334960938	-16.61990737915039	-1084.002075195312	1201.312377929688	-66.54705047607422	-1017.538696289062	1466.145141601562	-46.69841003417969	-844.095947265625	1372.436401367188	-15.42855358123779	-1096.719360351562	1325.909912109375	7.607441902160645	-1021.196105957031	1435.52099609375	-153.3916320800781	-904.661865234375	1439.2646484375	-203.4999084472656	-908.3410034179688	1315.779296875	-288.1242370605469	-885.8820190429688	1101.76171875	-314.5924987792969	-962.9287719726562	1083.066772460938	-243.9862365722656	-778.0677490234375	887.2229614257812	-208.9588012695312	-820.191650390625	860.2593383789062	-276.4774780273438	-850.4640502929688	995.7804565429688	-308.203857421875	-743.1116943359375	712.18310546875	-162.9049072265625	-775.8330078125	788.46923828125	-256.7462463378906	-741.3687744140625	811.4325561523438	-198.3648834228516	-990.47998046875	1415.329711914062	135.9492950439453	-1017.091918945312	1342.626098632812	191.0852203369141	-1068.494506835938	1081.494873046875	194.0630035400391	-1026.827026367188	1059.941284179688	105.926643371582	-958.5867309570312	814.8268432617188	193.2952423095703	-1041.109375	812.6497802734375	222.8806457519531	-1065.947387695312	1004.558227539062	201.7658538818359	-985.5469970703125	629.9454345703125	170.5580749511719	-951.8141479492188	711.2529296875	200.5074615478516	-1022.023498535156	719.1480712890625	237.9883117675781	-1014.174194335938	1613.86865234375	1.410645842552185	-805.0821533203125	1690.566162109375	4.165022850036621	-885.4082641601562	1668.913696289062	99.67546844482422	-936.2761840820312	1643.39892578125	-108.3383407592773	-978.946044921875	934.1497802734375	-213.8738555908203	-1006.464294433594	950.7211303710938	131.3950653076172	-882.8416137695312	965.67919921875	106.4853286743164	-867.0968627929688	941.1067504882812	-159.2103424072266	-1006.98095703125	467.8713073730469	-152.6944885253906	-1003.324096679688	613.8843994140625	-189.2335205078125	-1325.26513671875	96.52582550048828	-166.7332153320312	-1178.224365234375	278.23291015625	-176.7978820800781	-1140.717407226562	45.65790557861328	-162.0210571289062	-1178.962646484375	50.46765518188477	-108.9634552001953	-1237.196655273438	44.79680252075195	-205.0669097900391	-1367.728149414062	127.2452163696289	-89.96128082275391	-815.335205078125	522.0813598632812	89.78075408935547	-884.1607666015625	783.92578125	136.9968109130859	-853.2648315429688	41.46231842041016	25.42862319946289	-819.9036865234375	392.9201049804688	84.69368743896484	-636.9827270507812	48.74750518798828	52.49914932250977	-683.3043212890625	50.09714889526367	-1.833053827285767	-741.68798828125	51.49870300292969	76.03128051757812	-879.5765380859375	42.18740463256836	-42.44480895996094	
191	1.9	-1067.920288085938	1016.893371582031	49.52867889404297	-1070.558471679688	1004.671508789062	-122.4213027954102	-1064.787841796875	1072.403076171875	-48.85612869262695	-810.3880004882812	1258.388061523438	-13.31533336639404	-1076.220581054688	1201.9443359375	-64.11649322509766	-1010.695373535156	1466.963745117188	-44.27180862426758	-837.1107788085938	1373.812255859375	-12.37603187561035	-1089.676879882812	1326.579345703125	9.925674438476562	-1014.013610839844	1436.273559570312	-150.9409484863281	-897.3638916015625	1440.255859375	-200.6947631835938	-900.6919555664062	1316.825439453125	-285.3119812011719	-878.0875244140625	1102.846923828125	-311.91552734375	-955.1937866210938	1084.100952148438	-241.4218139648438	-769.8510131835938	888.8421630859375	-205.8122406005859	-812.0396728515625	861.4701538085938	-273.1607055664062	-842.4988403320312	996.9057006835938	-305.3211975097656	-734.3237915039062	714.1884765625	-158.8810882568359	-767.4805297851562	789.863525390625	-253.1155395507812	-732.8212890625	813.26904296875	-194.9209747314453	-984.0970458984375	1416.436889648438	138.5083465576172	-1010.705383300781	1343.697631835938	193.6072845458984	-1061.124267578125	1082.285400390625	196.42822265625	-1018.986877441406	1060.965698242188	108.4612274169922	-948.97412109375	816.400390625	195.7666015625	-1031.642211914062	813.35888671875	224.8830413818359	-1058.091552734375	1005.174011230469	204.0828552246094	-973.8838500976562	631.346923828125	172.5610656738281	-941.3518676757812	712.8917236328125	202.8434906005859	-1011.696899414062	720.0125122070312	239.8644866943359	-1007.599548339844	1614.965209960938	3.04858136177063	-798.6286010742188	1691.750610351562	8.194413185119629	-880.0032348632812	1669.942016601562	102.8188400268555	-928.484130859375	1644.63818359375	-105.7971343994141	-969.3055419921875	935.1975708007812	-211.4332580566406	-999.5135498046875	951.4065551757812	133.4356231689453	-875.7432861328125	966.482177734375	109.5430679321289	-857.96142578125	942.4696655273438	-155.8911895751953	-992.2477416992188	467.2764892578125	-152.840087890625	-990.0826416015625	614.07080078125	-188.2097625732422	-1321.040161132812	102.7793502807617	-168.8536224365234	-1168.803588867188	281.8502502441406	-178.2043914794922	-1141.604370117188	45.56150054931641	-162.0738525390625	-1177.931518554688	51.06474685668945	-109.4609375	-1235.567016601562	46.12202835083008	-205.8983154296875	-1361.75927734375	136.3644561767578	-92.42350006103516	-812.0044555664062	521.4951782226562	90.42317199707031	-878.5614624023438	783.698486328125	138.8394470214844	-852.9223022460938	41.65569305419922	25.45193672180176	-817.279296875	392.4298095703125	85.16046905517578	-635.9677734375	46.8400993347168	52.13203430175781	-682.6455078125	49.14684295654297	-2.168612957000732	-740.8924560546875	51.194091796875	75.73330688476562	-879.3139038085938	42.32331085205078	-42.49093246459961	
192	1.91	-1060.526977539062	1017.992797851562	51.40697860717773	-1061.883544921875	1005.414855957031	-120.7609481811523	-1056.516845703125	1072.88916015625	-46.52053833007812	-803.0844116210938	1259.889892578125	-9.986634254455566	-1068.537841796875	1202.6171875	-61.59763717651367	-1003.901123046875	1467.7958984375	-41.81807708740234	-830.1914672851562	1375.227661132812	-9.325638771057129	-1082.684692382812	1327.308471679688	12.35413646697998	-1006.922424316406	1437.036376953125	-148.4421844482422	-890.18115234375	1441.2529296875	-197.8845977783203	-893.1807861328125	1317.891479492188	-282.4819946289062	-870.3339233398438	1103.976928710938	-309.254638671875	-947.5198364257812	1085.14892578125	-238.9182434082031	-761.8340454101562	890.4098510742188	-202.7130432128906	-803.9943237304688	862.686767578125	-269.9801940917969	-834.5938110351562	998.0716552734375	-302.485107421875	-725.8734130859375	716.0994873046875	-154.9539031982422	-759.2867431640625	791.2319946289062	-249.6007690429688	-724.5208740234375	815.0384521484375	-191.531982421875	-977.6994018554688	1417.658569335938	141.0969696044922	-1004.281982421875	1344.905151367188	196.2101745605469	-1053.686645507812	1083.208618164062	198.9458312988281	-1011.184631347656	1062.135620117188	111.0929107666016	-939.1773071289062	818.1564331054688	198.24853515625	-1021.947387695312	814.2105712890625	226.9847717285156	-1050.158935546875	1005.905456542969	206.533447265625	-961.9230346679688	632.9495239257812	174.5608978271484	-930.6005249023438	714.7276611328125	205.1415557861328	-1001.079528808594	721.0302734375	241.7934112548828	-1001.004028320312	1616.083374023438	4.658140659332275	-792.192138671875	1692.91552734375	12.19286632537842	-874.5936279296875	1670.99267578125	105.9500122070312	-920.6757202148438	1645.869140625	-103.2746124267578	-959.6604614257812	936.2559814453125	-208.9530334472656	-992.8524780273438	952.1151123046875	135.4306335449219	-868.8807983398438	967.3011474609375	112.6953582763672	-848.8533935546875	943.9234619140625	-152.4503479003906	-976.427001953125	466.6613159179688	-153.1990051269531	-976.0383911132812	614.1991577148438	-187.3011932373047	-1315.925170898438	109.6768112182617	-171.0194244384766	-1158.306518554688	285.68212890625	-179.6770629882812	-1142.287353515625	45.34413146972656	-162.2316284179688	-1176.545776367188	51.90304183959961	-110.126838684082	-1233.561157226562	47.92271041870117	-206.8032836914062	-1354.630249023438	146.1037902832031	-94.90083312988281	-808.9248046875	520.951171875	91.22146606445312	-873.3054809570312	783.5218505859375	140.7175750732422	-852.679443359375	41.77787780761719	25.46548271179199	-814.9234619140625	391.9623718261719	85.71387481689453	-635.1963500976562	45.35755157470703	51.77371597290039	-682.13232421875	48.41004943847656	-2.45592212677002	-740.2776489257812	50.93777465820312	75.49418640136719	-879.0924072265625	42.41928863525391	-42.54462051391602	
193	1.92	-1053.337280273438	1019.085205078125	53.19346237182617	-1053.280395507812	1006.135192871094	-119.1824035644531	-1048.401489257812	1073.37060546875	-44.25832748413086	-795.885986328125	1261.374145507812	-6.653120040893555	-1060.970581054688	1203.310668945312	-59.0299186706543	-997.1559448242188	1468.615356445312	-39.34900665283203	-823.3472900390625	1376.635375976562	-6.290972709655762	-1075.747436523438	1328.0732421875	14.87977886199951	-999.9175415039062	1437.790893554688	-145.907470703125	-883.1002197265625	1442.240112304688	-195.0741119384766	-885.7883911132812	1318.965698242188	-279.6484375	-862.6532592773438	1105.137451171875	-306.6032104492188	-939.9329833984375	1086.210205078125	-236.4631042480469	-754.0127563476562	891.9147338867188	-199.6767120361328	-796.0574951171875	863.9090576171875	-266.9472351074219	-826.7697143554688	999.2710571289062	-299.697021484375	-717.7612915039062	717.888427734375	-151.1768341064453	-751.251220703125	792.570068359375	-246.2320709228516	-716.4873046875	816.7103881835938	-188.2234802246094	-971.2866821289062	1418.967163085938	143.7007293701172	-997.8156127929688	1346.227294921875	198.8885345458984	-1046.18017578125	1084.2431640625	201.6168823242188	-1003.422058105469	1063.427124023438	113.8209762573242	-929.2125244140625	820.066162109375	200.7459411621094	-1012.029357910156	815.1986083984375	229.1954040527344	-1042.144897460938	1006.732116699219	209.1200103759766	-949.7268676757812	634.7321166992188	176.5638275146484	-919.5761108398438	716.746826171875	207.4027862548828	-990.1851196289062	722.1943359375	243.7917022705078	-994.3905639648438	1617.171997070312	6.232006072998047	-785.7763671875	1694.028076171875	16.14687728881836	-869.1810913085938	1672.029907226562	109.0552673339844	-912.8599243164062	1647.049682617188	-100.7791519165039	-950.0320434570312	937.2655639648438	-206.4375457763672	-986.512451171875	952.8314208984375	137.3751068115234	-862.2915649414062	968.112548828125	115.9385604858398	-839.8048095703125	945.4054565429688	-148.9024658203125	-959.6363525390625	466.0430297851562	-153.6880798339844	-961.2601318359375	614.2489013671875	-186.4965057373047	-1309.801513671875	117.2237243652344	-173.1896667480469	-1146.703369140625	289.64892578125	-181.1453857421875	-1142.386596679688	44.95908355712891	-162.5443267822266	-1174.615966796875	53.09032440185547	-110.9854965209961	-1231.006469726562	50.36704254150391	-207.7885131835938	-1346.313720703125	156.3347625732422	-97.35612487792969	-806.0464477539062	520.453857421875	92.21749877929688	-868.345458984375	783.4156494140625	142.6545715332031	-852.506103515625	41.85334777832031	25.48158073425293	-812.7694702148438	391.5152282714844	86.37359619140625	-634.6380004882812	44.27942276000977	51.45122146606445	-681.7544555664062	47.87123489379883	-2.673144817352295	-739.8276977539062	50.72747039794922	75.32609558105469	-878.90869140625	42.48981094360352	-42.59243774414062	
